<svg height="480pt" viewBox="-104 0 480 480" width="480pt" xmlns="http://www.w3.org/2000/svg"><path d="m40 56h192c17.671875 0 32 14.328125 32 32v352c0 17.671875-14.328125 32-32 32h-192c-17.671875 0-32-14.328125-32-32v-352c0-17.671875 14.328125-32 32-32zm0 0" fill="#ffb655"/><path d="m264 97.121094v342.878906c0 17.671875-14.328125 32-32 32h-192c-17.671875 0-32-14.328125-32-32v-48.398438c101.519531-63.121093 208.238281-158.320312 256-294.480468zm0 0" fill="#ffa733"/><path d="m192 8h-112c-4.417969 0-8 3.582031-8 8v40h128v-40c0-4.417969-3.582031-8-8-8zm0 0" fill="#d1d3d4"/><path d="m72 264h48v128l80-128h-48v-128zm0 0" fill="#ff5023"/><path d="m232 48h-24v-32c0-8.835938-7.164062-16-16-16h-112c-8.835938 0-16 7.164062-16 16v32h-24c-22.082031.027344-39.9726562 17.917969-40 40v352c.0273438 22.082031 17.917969 39.972656 40 40h192c22.082031-.027344 39.972656-17.917969 40-40v-352c-.027344-22.082031-17.917969-39.972656-40-40zm-152-32h112v32h-112zm176 424c0 13.253906-10.746094 24-24 24h-192c-13.253906 0-24-10.746094-24-24v-352c0-13.253906 10.746094-24 24-24h192c13.253906 0 24 10.746094 24 24zm0 0"/><path d="m200 256h-40v-120c0-3.570312-2.363281-6.707031-5.792969-7.691406-3.433593-.984375-7.097656.425781-8.992187 3.453125l-80 128c-1.539063 2.464843-1.621094 5.574219-.210938 8.117187 1.410156 2.542969 4.085938 4.121094 6.996094 4.121094h40v120c0 3.566406 2.363281 6.703125 5.792969 7.6875.71875.207031 1.460937.3125 2.207031.3125 2.757812 0 5.320312-1.421875 6.785156-3.761719l80-128c1.539063-2.464843 1.621094-5.574219.210938-8.117187-1.410156-2.542969-4.085938-4.121094-6.996094-4.121094zm-72 108.105469v-100.105469c0-4.417969-3.582031-8-8-8h-33.601562l57.601562-92.105469v100.105469c0 4.417969 3.582031 8 8 8h33.601562zm0 0"/></svg>