<?xml version="1.0" standalone="no"?><!-- Generator: Gravit.io --><svg xmlns="http://www.w3.org/2000/svg" xmlns:xlink="http://www.w3.org/1999/xlink" style="isolation:isolate" viewBox="632.74 658.333 28.346 28.347" width="28.346" height="28.347"><g><path d=" M 650.456 686.68 C 644.595 686.68 639.827 681.911 639.827 676.05 C 639.827 667.836 649.643 658.864 650.06 658.486 C 650.285 658.282 650.628 658.282 650.853 658.486 C 651.27 658.864 661.086 667.836 661.086 676.05 C 661.086 681.911 656.317 686.68 650.456 686.68 Z " fill="rgb(48,60,66)"/><path d=" M 650.456 659.736 C 648.617 661.509 641.008 669.256 641.008 676.05 C 641.008 681.26 645.246 685.499 650.456 685.499 C 655.666 685.499 659.905 681.26 659.905 676.05 C 659.905 669.251 652.297 661.508 650.456 659.736 Z " fill="rgb(187,222,251)"/><g opacity="0.1"><path d=" M 650.456 659.736 C 650.454 659.738 650.45 659.742 650.448 659.744 C 652.844 662.915 655.181 666.968 655.181 670.735 C 655.181 675.945 650.942 680.184 645.732 680.184 C 644.233 680.184 642.819 679.824 641.559 679.2 C 642.86 682.863 646.352 685.499 650.456 685.499 C 655.666 685.499 659.905 681.26 659.905 676.05 C 659.905 669.251 652.297 661.508 650.456 659.736 Z " fill="rgb(0,0,0)"/></g><g><path d=" M 643.516 672.507 C 642.481 672.507 641.926 672.121 641.48 671.811 C 641.09 671.54 640.782 671.326 640.118 671.326 C 639.455 671.326 639.147 671.54 638.758 671.81 C 638.312 672.12 637.757 672.507 636.723 672.507 C 635.689 672.507 635.134 672.12 634.689 671.81 C 634.301 671.54 633.993 671.326 633.33 671.326 C 633.004 671.326 632.74 671.062 632.74 670.735 C 632.74 670.409 633.004 670.145 633.33 670.145 C 634.364 670.145 634.919 670.531 635.364 670.841 C 635.753 671.112 636.06 671.326 636.723 671.326 C 637.386 671.326 637.694 671.112 638.083 670.841 C 638.529 670.53 639.084 670.145 640.118 670.145 C 641.152 670.145 641.708 670.53 642.154 670.841 C 642.543 671.112 642.851 671.326 643.516 671.326 C 644.18 671.326 644.487 671.112 644.877 670.841 C 645.323 670.53 645.878 670.145 646.913 670.145 C 647.239 670.145 647.504 670.409 647.504 670.735 C 647.504 671.062 647.239 671.326 646.913 671.326 C 646.249 671.326 645.941 671.54 645.551 671.811 C 645.105 672.121 644.55 672.507 643.516 672.507 Z " fill="rgb(48,60,66)"/><path d=" M 643.516 683.137 C 642.481 683.137 641.926 682.751 641.48 682.441 C 641.09 682.169 640.782 681.956 640.118 681.956 C 639.455 681.956 639.147 682.17 638.758 682.44 C 638.312 682.75 637.757 683.137 636.723 683.137 C 635.689 683.137 635.134 682.75 634.689 682.44 C 634.301 682.17 633.993 681.956 633.33 681.956 C 633.004 681.956 632.74 681.691 632.74 681.365 C 632.74 681.039 633.004 680.774 633.33 680.774 C 634.364 680.774 634.919 681.161 635.364 681.471 C 635.753 681.742 636.06 681.955 636.723 681.955 C 637.386 681.955 637.694 681.742 638.083 681.471 C 638.529 681.16 639.084 680.774 640.118 680.774 C 641.152 680.774 641.708 681.16 642.154 681.471 C 642.543 681.742 642.851 681.955 643.516 681.955 C 644.18 681.955 644.487 681.742 644.877 681.471 C 645.323 681.16 645.878 680.774 646.913 680.774 C 647.239 680.774 647.504 681.039 647.504 681.365 C 647.504 681.691 647.239 681.956 646.913 681.956 C 646.249 681.956 645.941 682.17 645.551 682.441 C 645.105 682.751 644.55 683.137 643.516 683.137 Z " fill="rgb(48,60,66)"/><path d=" M 636.723 679.593 C 635.689 679.593 635.134 679.207 634.689 678.897 C 634.301 678.626 633.993 678.412 633.33 678.412 C 633.004 678.412 632.74 678.148 632.74 677.822 C 632.74 677.495 633.004 677.231 633.33 677.231 C 634.364 677.231 634.919 677.618 635.364 677.928 C 635.753 678.198 636.06 678.412 636.723 678.412 C 637.049 678.412 637.313 678.676 637.313 679.003 C 637.313 679.329 637.049 679.593 636.723 679.593 Z " fill="rgb(48,60,66)"/><path d=" M 650.456 679.593 C 649.436 679.593 648.868 679.23 648.366 678.91 C 647.932 678.632 647.588 678.412 646.913 678.412 C 646.249 678.412 645.941 678.626 645.551 678.897 C 645.105 679.207 644.55 679.593 643.516 679.593 C 642.481 679.593 641.926 679.207 641.479 678.897 C 641.09 678.626 640.782 678.412 640.118 678.412 C 639.791 678.412 639.527 678.148 639.527 677.822 C 639.527 677.495 639.791 677.231 640.118 677.231 C 641.152 677.231 641.708 677.617 642.154 677.927 C 642.543 678.198 642.851 678.412 643.516 678.412 C 644.18 678.412 644.487 678.198 644.877 677.927 C 645.323 677.617 645.878 677.231 646.913 677.231 C 647.934 677.231 648.502 677.594 649.003 677.914 C 649.437 678.192 649.781 678.412 650.456 678.412 C 650.783 678.412 651.047 678.676 651.047 679.003 C 651.047 679.329 650.783 679.593 650.456 679.593 Z " fill="rgb(48,60,66)"/><path d=" M 636.723 676.05 C 635.689 676.05 635.134 675.664 634.689 675.353 C 634.301 675.083 633.993 674.869 633.33 674.869 C 633.004 674.869 632.74 674.605 632.74 674.278 C 632.74 673.952 633.004 673.688 633.33 673.688 C 634.364 673.688 634.919 674.074 635.364 674.384 C 635.753 674.655 636.06 674.869 636.723 674.869 C 637.386 674.869 637.694 674.655 638.083 674.384 C 638.529 674.074 639.084 673.688 640.118 673.688 C 640.444 673.688 640.708 673.952 640.708 674.278 C 640.708 674.605 640.444 674.869 640.118 674.869 C 639.455 674.869 639.147 675.083 638.758 675.353 C 638.312 675.664 637.757 676.05 636.723 676.05 Z " fill="rgb(48,60,66)"/><path d=" M 650.305 676.05 C 649.272 676.05 648.717 675.664 648.272 675.353 C 647.883 675.083 647.576 674.869 646.913 674.869 C 646.249 674.869 645.941 675.083 645.551 675.354 C 645.105 675.664 644.55 676.05 643.516 676.05 C 643.189 676.05 642.925 675.786 642.925 675.459 C 642.925 675.133 643.189 674.869 643.516 674.869 C 644.179 674.869 644.487 674.655 644.877 674.384 C 645.323 674.074 645.878 673.688 646.913 673.688 C 647.946 673.688 648.501 674.074 648.946 674.384 C 649.335 674.655 649.643 674.869 650.305 674.869 C 650.969 674.869 651.276 674.655 651.666 674.384 C 652.111 674.074 652.666 673.688 653.7 673.688 C 654.027 673.688 654.291 673.952 654.291 674.278 C 654.291 674.605 654.027 674.869 653.7 674.869 C 653.037 674.869 652.73 675.083 652.34 675.353 C 651.895 675.664 651.339 676.05 650.305 676.05 Z " fill="rgb(48,60,66)"/></g><linearGradient id="_lgradient_0" x1="0.06388380540061268" y1="0.29592189873986185" x2="0.9906907839514408" y2="0.7280984907160681" gradientTransform="matrix(28.346,0,0,28.347,632.74,658.333)" gradientUnits="userSpaceOnUse"><stop offset="0%" stop-opacity="0.2" style="stop-color:rgb(255,255,255)"/><stop offset="100%" stop-opacity="0" style="stop-color:rgb(255,255,255)"/></linearGradient><path d=" M 633.33 678.412 C 633.993 678.412 634.301 678.626 634.689 678.897 C 635.134 679.207 635.689 679.593 636.723 679.593 C 637.049 679.593 637.313 679.329 637.313 679.003 C 637.313 678.676 637.049 678.412 636.723 678.412 C 636.06 678.412 635.753 678.198 635.364 677.928 C 634.919 677.618 634.364 677.231 633.33 677.231 C 633.004 677.231 632.74 677.495 632.74 677.822 C 632.74 678.148 633.004 678.412 633.33 678.412 Z  M 650.853 658.487 C 650.628 658.282 650.285 658.282 650.06 658.487 C 649.74 658.777 643.892 664.136 641.187 670.325 C 640.893 670.222 640.555 670.145 640.118 670.145 C 639.084 670.145 638.529 670.53 638.083 670.841 C 637.694 671.112 637.386 671.326 636.723 671.326 C 636.06 671.326 635.753 671.112 635.364 670.841 C 634.919 670.531 634.364 670.145 633.33 670.145 C 633.004 670.145 632.74 670.409 632.74 670.735 C 632.74 671.062 633.004 671.326 633.33 671.326 C 633.993 671.326 634.301 671.54 634.689 671.81 C 635.134 672.12 635.689 672.507 636.723 672.507 C 637.757 672.507 638.312 672.12 638.758 671.81 C 639.147 671.54 639.454 671.326 640.118 671.326 C 640.369 671.326 640.56 671.364 640.734 671.416 C 640.457 672.168 640.257 672.928 640.101 673.69 C 639.079 673.694 638.526 674.076 638.083 674.384 C 637.694 674.655 637.386 674.869 636.723 674.869 C 636.06 674.869 635.753 674.655 635.364 674.385 C 634.919 674.074 634.364 673.688 633.33 673.688 C 633.004 673.688 632.74 673.952 632.74 674.279 C 632.74 674.605 633.004 674.869 633.33 674.869 C 633.993 674.869 634.3 675.083 634.689 675.354 C 635.134 675.664 635.689 676.05 636.723 676.05 C 637.757 676.05 638.312 675.664 638.758 675.354 C 639.101 675.115 639.394 674.93 639.909 674.887 C 639.868 675.275 639.826 675.664 639.826 676.05 C 639.826 676.465 639.856 676.872 639.903 677.275 C 639.683 677.361 639.527 677.572 639.527 677.822 C 639.527 678.142 639.782 678.398 640.099 678.409 C 640.299 679.285 640.607 680.12 641.009 680.9 C 640.753 680.829 640.471 680.775 640.118 680.775 C 639.084 680.775 638.529 681.16 638.083 681.471 C 637.694 681.742 637.386 681.956 636.723 681.956 C 636.06 681.956 635.753 681.742 635.364 681.471 C 634.919 681.161 634.364 680.775 633.33 680.775 C 633.004 680.775 632.74 681.039 632.74 681.365 C 632.74 681.692 633.004 681.956 633.33 681.956 C 633.993 681.956 634.3 682.17 634.689 682.44 C 635.134 682.75 635.689 683.137 636.723 683.137 C 637.757 683.137 638.312 682.75 638.758 682.44 C 639.147 682.17 639.454 681.956 640.118 681.956 C 640.782 681.956 641.09 682.17 641.48 682.441 C 641.722 682.609 642.005 682.795 642.372 682.934 C 644.323 685.222 647.221 686.68 650.456 686.68 C 656.317 686.68 661.086 681.911 661.086 676.05 C 661.086 667.836 651.27 658.864 650.853 658.487 Z " fill="url(#_lgradient_0)"/></g></svg>