<?xml version="1.0" standalone="no"?><!-- Generator: Gravit.io --><svg xmlns="http://www.w3.org/2000/svg" xmlns:xlink="http://www.w3.org/1999/xlink" style="isolation:isolate" viewBox="985.25 322.019 43.25 192.467" width="43.25" height="192.467"><g><g transform="matrix(1.201,0,0,1.201,985.25,355.393)"><text transform="matrix(1,0,0,1,0,10.688)" style="font-family:'Open Sans';font-weight:700;font-size:10px;font-style:normal;fill:#7e8799;stroke:none;">2</text></g><g transform="matrix(1.201,0,0,1.201,985.25,389.096)"><text transform="matrix(1,0,0,1,0,10.688)" style="font-family:'Open Sans';font-weight:700;font-size:10px;font-style:normal;fill:#7e8799;stroke:none;">4</text></g><g transform="matrix(1.201,0,0,1.201,985.25,422.923)"><text transform="matrix(1,0,0,1,0,10.688)" style="font-family:'Open Sans';font-weight:700;font-size:10px;font-style:normal;fill:#7e8799;stroke:none;">6</text></g><g transform="matrix(1.201,0,0,1.201,985.25,456.502)"><text transform="matrix(1,0,0,1,0,10.688)" style="font-family:'Open Sans';font-weight:700;font-size:10px;font-style:normal;fill:#7e8799;stroke:none;">8</text></g><g><path d=" M 1016.241 348.605 L 1006.024 348.605 C 1003.981 348.605 1002.618 348.075 1002.618 347.28 C 1002.618 346.485 1003.981 345.955 1006.024 345.955 L 1016.241 345.955 C 1018.284 345.955 1019.646 346.485 1019.646 347.28 C 1019.646 348.075 1018.284 348.605 1016.241 348.605 Z " fill="rgb(224,234,253)"/><path d=" M 1023.052 399.16 L 1006.024 399.16 C 1003.981 399.16 1002.618 398.63 1002.618 397.835 C 1002.618 397.039 1003.981 396.509 1006.024 396.509 L 1023.052 396.509 C 1025.095 396.509 1026.457 397.039 1026.457 397.835 C 1026.457 398.63 1025.095 399.16 1023.052 399.16 Z " fill="rgb(224,234,253)"/><path d=" M 1023.052 365.457 L 1006.024 365.457 C 1003.981 365.457 1002.618 364.927 1002.618 364.131 C 1002.618 363.336 1003.981 362.806 1006.024 362.806 L 1023.052 362.806 C 1025.095 362.806 1026.457 363.336 1026.457 364.131 C 1026.457 364.927 1025.095 365.457 1023.052 365.457 Z " fill="rgb(224,234,253)"/><path d=" M 1016.241 382.308 L 1006.024 382.308 C 1003.981 382.308 1002.618 381.778 1002.618 380.983 C 1002.618 380.188 1003.981 379.658 1006.024 379.658 L 1016.241 379.658 C 1018.284 379.658 1019.646 380.188 1019.646 380.983 C 1019.646 381.778 1018.284 382.308 1016.241 382.308 Z " fill="rgb(224,234,253)"/><path d=" M 1016.241 416.011 L 1006.024 416.011 C 1003.981 416.011 1002.618 415.481 1002.618 414.686 C 1002.618 413.891 1003.981 413.361 1006.024 413.361 L 1016.241 413.361 C 1018.284 413.361 1019.646 413.891 1019.646 414.686 C 1019.646 415.481 1018.284 416.011 1016.241 416.011 Z " fill="rgb(224,234,253)"/><path d=" M 1023.052 432.863 L 1006.024 432.863 C 1003.981 432.863 1002.618 432.333 1002.618 431.538 C 1002.618 430.743 1003.981 430.213 1006.024 430.213 L 1023.052 430.213 C 1025.095 430.213 1026.457 430.743 1026.457 431.538 C 1026.457 432.333 1025.095 432.863 1023.052 432.863 Z " fill="rgb(224,234,253)"/><path d=" M 1016.241 449.714 L 1006.024 449.714 C 1003.981 449.714 1002.618 449.184 1002.618 448.389 C 1002.618 447.594 1003.981 447.064 1006.024 447.064 L 1016.241 447.064 C 1018.284 447.064 1019.646 447.594 1019.646 448.389 C 1019.646 449.184 1018.284 449.714 1016.241 449.714 Z " fill="rgb(224,234,253)"/><path d=" M 1023.052 466.566 L 1006.024 466.566 C 1003.981 466.566 1002.618 466.036 1002.618 465.241 C 1002.618 464.446 1003.981 463.916 1006.024 463.916 L 1023.052 463.916 C 1025.095 463.916 1026.457 464.446 1026.457 465.241 C 1026.457 466.036 1025.095 466.566 1023.052 466.566 Z " fill="rgb(224,234,253)"/><path d=" M 1016.241 483.418 L 1006.024 483.418 C 1003.981 483.418 1002.618 482.888 1002.618 482.092 C 1002.618 481.297 1003.981 480.767 1006.024 480.767 L 1016.241 480.767 C 1018.284 480.767 1019.646 481.297 1019.646 482.092 C 1019.646 482.888 1018.284 483.418 1016.241 483.418 Z " fill="rgb(224,234,253)"/><path d=" M 1022.503 497.634 L 1005.475 497.634 C 1003.432 497.634 1002.069 497.104 1002.069 496.309 C 1002.069 495.514 1003.432 494.984 1005.475 494.984 L 1022.503 494.984 C 1024.546 494.984 1025.908 495.514 1025.908 496.309 C 1025.908 497.104 1024.546 497.634 1022.503 497.634 Z " fill="rgb(224,234,253)"/><path d=" M 1015.692 514.486 L 1005.475 514.486 C 1003.432 514.486 1002.069 513.956 1002.069 513.161 C 1002.069 512.365 1003.432 511.835 1005.475 511.835 L 1015.692 511.835 C 1017.735 511.835 1019.097 512.365 1019.097 513.161 C 1019.097 513.956 1017.735 514.486 1015.692 514.486 Z " fill="rgb(224,234,253)"/><g transform="matrix(1.201,0,0,1.201,985.25,322.019)"><text transform="matrix(1,0,0,1,0,10.688)" style="font-family:'Open Sans';font-weight:700;font-size:10px;font-style:normal;fill:#7e8799;stroke:none;">0 INCH</text></g><g transform="matrix(1.201,0,0,1.201,985.25,487.129)"><text transform="matrix(1,0,0,1,0,10.688)" style="font-family:'Open Sans';font-weight:700;font-size:10px;font-style:normal;fill:#7e8799;stroke:none;">10</text></g></g></g></svg>