<?xml version="1.0" standalone="no"?><!-- Generator: Gravit.io --><svg xmlns="http://www.w3.org/2000/svg" xmlns:xlink="http://www.w3.org/1999/xlink" style="isolation:isolate" viewBox="847.889 658.333 19.488 31.181" width="19.488" height="31.181"><g><path d=" M 860.621 675.799 L 860.621 662.223 C 860.621 660.327 858.878 658.79 856.728 658.79 C 854.579 658.79 852.836 660.327 852.836 662.223 L 852.836 675.799 C 850.374 677.007 848.708 679.324 848.708 681.984 C 848.708 685.891 852.299 689.058 856.728 689.058 C 861.158 689.058 864.749 685.891 864.749 681.984 C 864.749 679.324 863.083 677.007 860.621 675.799 L 860.621 675.799 Z " fill="rgb(224,224,226)"/><path d=" M 850.779 681.984 C 850.779 679.324 852.445 677.007 854.907 675.799 L 854.907 662.223 C 854.907 660.644 856.117 659.314 857.764 658.914 C 857.434 658.834 857.087 658.79 856.728 658.79 C 854.579 658.79 852.836 660.327 852.836 662.223 L 852.836 675.799 C 850.374 677.007 848.708 679.324 848.708 681.984 C 848.708 685.891 852.299 689.058 856.728 689.058 C 857.079 689.058 857.425 689.038 857.764 688.999 C 853.824 688.551 850.779 685.581 850.779 681.984 Z " fill="rgb(172,171,177)"/><path d=" M 863.849 678.727 C 863.127 677.863 862.128 677.191 860.966 676.814 L 860.966 675.98 C 860.853 675.917 860.738 675.856 860.621 675.799 L 860.621 662.223 C 860.621 661.73 860.503 661.262 860.291 660.839 C 859.902 660.513 859.377 660.313 858.8 660.313 C 857.605 660.313 856.634 661.17 856.634 662.223 L 856.634 676.814 C 854.238 677.592 852.529 679.622 852.529 682.005 C 852.529 685.059 855.337 687.535 858.8 687.535 C 860.819 687.535 862.614 686.694 863.761 685.387 C 864.391 684.377 864.749 683.217 864.749 681.984 C 864.749 680.809 864.424 679.702 863.849 678.727 L 863.849 678.727 Z " fill="rgb(172,171,177)"/><path d=" M 858.895 662.223 C 858.895 661.17 857.923 660.313 856.728 660.313 C 855.534 660.313 854.562 661.17 854.562 662.223 L 854.562 671.853 L 858.895 671.853 L 858.895 662.223 Z " fill="rgb(189,219,255)"/><path d=" M 858.895 676.814 L 858.895 671.853 L 854.562 671.853 L 854.562 676.814 C 852.166 677.592 850.458 679.622 850.458 682.005 C 850.458 685.059 853.265 687.535 856.728 687.535 C 860.191 687.535 862.999 685.059 862.999 682.005 C 862.999 679.622 861.29 677.592 858.895 676.814 L 858.895 676.814 Z " fill="rgb(255,63,98)"/><path d=" M 866.86 668.554 L 863.047 668.554 L 863.047 666.873 L 864.953 665.192 L 866.86 666.873 L 866.86 668.554 Z " fill="rgb(255,182,85)"/><path d=" M 866.86 670.752 L 863.047 670.752 L 863.047 672.434 L 864.953 674.115 L 866.86 672.434 L 866.86 670.752 Z " fill="rgb(255,182,85)"/><path d=" M 857.764 660.545 C 857.456 660.397 857.103 660.313 856.728 660.313 C 855.534 660.313 854.562 661.17 854.562 662.223 L 854.562 671.853 L 856.634 671.853 L 856.634 662.223 C 856.634 661.5 857.091 660.87 857.764 660.545 Z " fill="rgb(87,164,255)"/><path d=" M 852.529 682.005 C 852.529 679.622 854.238 677.592 856.634 676.814 L 856.634 671.853 L 854.562 671.853 L 854.562 676.814 C 852.166 677.592 850.458 679.622 850.458 682.005 C 850.458 685.059 853.265 687.535 856.728 687.535 C 857.081 687.535 857.427 687.509 857.764 687.46 C 854.794 687.024 852.529 684.748 852.529 682.005 L 852.529 682.005 Z " fill="rgb(199,0,36)"/><path d=" M 865.989 666.105 L 864.953 665.192 L 863.047 666.873 L 863.047 668.554 L 865.119 668.554 L 865.119 666.873 L 865.989 666.105 Z " fill="rgb(255,130,67)"/><path d=" M 865.119 672.434 L 865.119 670.752 L 863.047 670.752 L 863.047 672.434 L 864.953 674.115 L 865.989 673.201 L 865.119 672.434 Z " fill="rgb(255,130,67)"/><path d=" M 861.139 675.536 L 861.139 662.223 C 861.139 660.078 859.16 658.333 856.728 658.333 C 854.296 658.333 852.318 660.078 852.318 662.223 L 852.318 673.519 L 853.354 673.519 L 853.354 662.223 C 853.354 660.582 854.867 659.247 856.728 659.247 C 858.589 659.247 860.103 660.582 860.103 662.223 L 860.103 676.068 L 860.369 676.198 C 862.751 677.366 864.231 679.584 864.231 681.984 C 864.231 685.633 860.865 688.601 856.728 688.601 C 852.592 688.601 849.226 685.633 849.226 681.984 C 849.226 679.584 850.706 677.366 853.087 676.198 L 853.354 676.068 L 853.354 674.737 L 852.318 674.737 L 852.318 675.536 C 849.764 676.897 848.19 679.343 848.19 681.984 C 848.19 686.136 852.02 689.514 856.728 689.514 C 861.437 689.514 865.267 686.136 865.267 681.984 C 865.267 679.343 863.693 676.897 861.139 675.536 L 861.139 675.536 Z " fill="rgb(0,0,0)"/><path d=" M 859.413 670.635 L 859.413 662.223 C 859.413 660.918 858.208 659.856 856.728 659.856 C 855.248 659.856 854.044 660.918 854.044 662.223 L 854.044 670.635 L 855.08 670.635 L 855.08 662.223 C 855.08 661.422 855.819 660.769 856.728 660.769 C 857.637 660.769 858.377 661.422 858.377 662.223 L 858.377 670.635 L 859.413 670.635 Z " fill="rgb(0,0,0)"/><path d=" M 854.044 676.505 C 851.575 677.443 849.94 679.614 849.94 682.005 C 849.94 685.306 852.985 687.992 856.728 687.992 C 860.471 687.992 863.517 685.306 863.517 682.005 C 863.517 679.615 861.882 677.444 859.413 676.505 L 859.413 671.397 L 854.044 671.397 L 854.044 676.505 Z  M 855.08 677.132 L 855.08 672.31 L 858.377 672.31 L 858.377 677.133 L 858.716 677.243 C 860.968 677.974 862.481 679.888 862.481 682.005 C 862.481 684.802 859.9 687.078 856.728 687.078 C 853.556 687.078 850.976 684.802 850.976 682.005 C 850.976 679.888 852.489 677.974 854.741 677.242 L 855.08 677.132 Z " fill="rgb(0,0,0)"/><path d=" M 847.889 662.14 L 851.317 662.14 L 851.317 663.053 L 847.889 663.053 L 847.889 662.14 Z " fill="rgb(0,0,0)"/><path d=" M 849.119 664.576 L 851.317 664.576 L 851.317 665.489 L 849.119 665.489 L 849.119 664.576 Z " fill="rgb(0,0,0)"/><path d=" M 849.119 659.704 L 851.317 659.704 L 851.317 660.617 L 849.119 660.617 L 849.119 659.704 Z " fill="rgb(0,0,0)"/><path d=" M 847.889 667.012 L 851.317 667.012 L 851.317 667.925 L 847.889 667.925 L 847.889 667.012 Z " fill="rgb(0,0,0)"/><path d=" M 849.119 669.448 L 851.317 669.448 L 851.317 670.361 L 849.119 670.361 L 849.119 669.448 Z " fill="rgb(0,0,0)"/><path d=" M 847.889 671.884 L 851.317 671.884 L 851.317 672.797 L 847.889 672.797 L 847.889 671.884 Z " fill="rgb(0,0,0)"/><path d=" M 849.119 674.32 L 851.317 674.32 L 851.317 675.233 L 849.119 675.233 L 849.119 674.32 Z " fill="rgb(0,0,0)"/><path d=" M 864.953 664.546 L 862.529 666.684 L 862.529 669.011 L 867.378 669.011 L 867.378 666.684 L 864.953 664.546 Z  M 866.342 668.097 L 863.565 668.097 L 863.565 667.062 L 864.953 665.837 L 866.342 667.062 L 866.342 668.097 Z " fill="rgb(0,0,0)"/><path d=" M 862.529 672.623 L 864.953 674.761 L 867.378 672.623 L 867.378 670.296 L 862.529 670.296 L 862.529 672.623 Z  M 863.565 671.209 L 866.342 671.209 L 866.342 672.244 L 864.953 673.469 L 863.565 672.244 L 863.565 671.209 Z " fill="rgb(0,0,0)"/><g><path d=" M 857.686 670.655 L 856.65 670.655 L 856.65 665.268 L 857.686 665.268 L 857.686 670.655 Z  M 857.686 664.659 L 856.65 664.659 L 856.65 663.746 L 857.686 663.746 L 857.686 664.659 Z  M 857.686 663.137 L 856.65 663.137 L 856.65 662.223 L 857.686 662.223 L 857.686 663.137 Z " fill="rgb(255,255,255)"/><path d=" M 856.728 686.469 L 856.728 685.556 C 858.948 685.556 860.755 683.963 860.755 682.005 C 860.755 681.465 860.61 680.923 860.337 680.436 L 861.265 680.031 C 861.609 680.643 861.79 681.325 861.79 682.005 C 861.79 684.467 859.519 686.469 856.728 686.469 L 856.728 686.469 Z  M 860.025 679.971 C 859.85 679.75 859.645 679.546 859.419 679.365 L 860.113 678.687 C 860.398 678.914 860.654 679.17 860.874 679.448 L 860.025 679.971 Z  M 858.936 679.035 C 858.68 678.887 858.406 678.764 858.119 678.671 L 858.477 677.814 C 858.838 677.931 859.184 678.086 859.506 678.272 L 858.936 679.035 Z " fill="rgb(255,255,255)"/></g></g></svg>