<?xml version="1.0" standalone="no"?><!-- Generator: Gravit.io --><svg xmlns="http://www.w3.org/2000/svg" xmlns:xlink="http://www.w3.org/1999/xlink" style="isolation:isolate" viewBox="738.568 659.751 31.181 31.181" width="31.181" height="31.181"><g><circle vector-effect="non-scaling-stroke" cx="754.158856402665" cy="675.3412652767781" r="8.964543554674378" fill="rgb(252,212,98)"/><g><path d=" M 758.407 667.429 C 758.797 668.676 759.07 670.002 759.109 671.366 C 759.343 676.783 755.679 681.578 750.924 683.682 C 751.937 684.072 753.029 684.306 754.159 684.306 C 759.109 684.306 763.123 680.291 763.123 675.341 C 763.123 671.911 761.214 668.949 758.407 667.429 Z " fill="rgb(246,195,88)"/><path d=" M 754.159 659.751 C 753.418 659.751 752.834 660.335 752.834 661.076 L 752.834 663.259 C 752.834 663.999 753.418 664.584 754.159 664.584 C 754.899 664.584 755.484 663.999 755.484 663.259 L 755.484 661.076 C 755.484 660.335 754.899 659.751 754.159 659.751 Z " fill="rgb(246,195,88)"/><path d=" M 754.159 686.099 C 753.418 686.099 752.834 686.683 752.834 687.424 L 752.834 689.607 C 752.834 690.347 753.418 690.932 754.159 690.932 C 754.899 690.932 755.484 690.347 755.484 689.607 L 755.484 687.424 C 755.484 686.683 754.899 686.099 754.159 686.099 Z " fill="rgb(246,195,88)"/><path d=" M 769.749 675.341 C 769.749 674.601 769.165 674.016 768.424 674.016 L 766.241 674.016 C 765.501 674.016 764.916 674.601 764.916 675.341 C 764.916 676.082 765.501 676.666 766.241 676.666 L 768.424 676.666 C 769.165 676.666 769.749 676.082 769.749 675.341 Z " fill="rgb(246,195,88)"/><path d=" M 743.401 675.341 C 743.401 674.601 742.817 674.016 742.076 674.016 L 739.894 674.016 C 739.153 674.016 738.568 674.601 738.568 675.341 C 738.568 676.082 739.153 676.666 739.894 676.666 L 742.076 676.666 C 742.817 676.666 743.401 676.082 743.401 675.341 Z " fill="rgb(246,195,88)"/><path d=" M 765.189 664.311 C 764.682 663.804 763.825 663.804 763.318 664.311 L 761.759 665.87 C 761.253 666.377 761.253 667.234 761.759 667.741 C 762.266 668.248 763.123 668.248 763.63 667.741 L 765.189 666.182 C 765.696 665.675 765.696 664.818 765.189 664.311 Z " fill="rgb(246,195,88)"/><path d=" M 746.558 682.942 C 746.052 682.435 745.194 682.435 744.688 682.942 L 743.129 684.501 C 742.622 685.007 742.622 685.865 743.129 686.372 C 743.635 686.878 744.493 686.878 744.999 686.372 L 746.558 684.813 C 747.065 684.306 747.065 683.487 746.558 682.942 Z " fill="rgb(246,195,88)"/><path d=" M 765.189 686.372 C 765.696 685.865 765.696 685.007 765.189 684.501 L 763.63 682.942 C 763.123 682.435 762.266 682.435 761.759 682.942 C 761.253 683.448 761.253 684.306 761.759 684.813 L 763.318 686.372 C 763.825 686.878 764.682 686.878 765.189 686.372 Z " fill="rgb(246,195,88)"/><path d=" M 746.558 667.741 C 747.065 667.234 747.065 666.377 746.558 665.87 L 744.999 664.311 C 744.493 663.804 743.635 663.804 743.129 664.311 C 742.622 664.818 742.622 665.675 743.129 666.182 L 744.688 667.741 C 745.194 668.248 746.013 668.248 746.558 667.741 Z " fill="rgb(246,195,88)"/></g></g></svg>