<?xml version="1.0" standalone="no"?><!-- Generator: Gravit.io --><svg xmlns="http://www.w3.org/2000/svg" xmlns:xlink="http://www.w3.org/1999/xlink" style="isolation:isolate" viewBox="1068.648 636.324 359.137 138.588" width="359.137" height="138.588"><g><clipPath id="_clipPath_2YVNpD3nvR8a2AzWolGJ4qWoHIAwEPSZ"><path d=" M 1427.785 774.912 L 1068.648 774.912 L 1068.648 636.324 L 1427.785 636.324 L 1427.785 774.912 Z " fill="rgb(255,255,255)"/></clipPath><g clip-path="url(#_clipPath_2YVNpD3nvR8a2AzWolGJ4qWoHIAwEPSZ)"><g><path d=" M 1517.748 693.562 C 1446.965 703.462 1413.405 699.018 1371.93 685.951 C 1330.456 672.884 1305.656 680.56 1257.546 697.587 C 1209.435 714.614 1143.366 685.785 1093.596 685.785 C 1043.827 685.785 1014.059 703.111 978.863 703.111 L 978.863 738.879 L 1517.541 738.879 L 1517.748 693.562" fill="rgb(167,230,197)"/><path d=" M 1517.678 719.535 C 1504.934 712.512 1485.087 703.936 1461.223 704.438 C 1436.223 704.965 1430.203 714.731 1400.876 716.96 C 1370.098 719.3 1366.077 709.234 1333.794 710.235 C 1296.652 711.385 1294.865 724.862 1263.907 724.777 C 1225.698 724.672 1220.329 704.083 1182.758 703.911 C 1148.072 703.753 1144.385 721.251 1110.063 720.436 C 1076.057 719.627 1066.911 702.132 1033.757 701.937 C 1009.739 701.797 991.074 710.832 978.863 717.676 L 978.863 753.662 L 1517.748 753.662 L 1517.678 719.535" fill="rgb(150,223,189)"/><path d=" M 1517.569 736.688 C 1491.711 725.778 1469.241 722.311 1450.906 724.135 C 1424.752 726.737 1420.478 738.748 1395.616 739.76 C 1366.998 740.924 1357.516 725.668 1329.439 726.814 C 1301.413 727.957 1297.596 743.703 1271.492 744.336 C 1242.57 745.037 1234.339 726.026 1203.573 725.674 C 1171.599 725.309 1160.428 745.615 1129.84 744.338 C 1106.998 743.383 1084.622 728.489 1060.357 724.411 C 1041.505 721.243 1029.861 726.033 978.863 746.243 L 978.863 777.684 L 1517.569 777.684 L 1517.569 736.688 Z " fill="rgb(126,212,177)"/><path d=" M 1517.748 777.114 C 1499.356 761.92 1472.13 744.627 1441.297 746.272 C 1409.333 747.978 1402.634 768.397 1368.209 771.117 C 1325.616 774.484 1312.803 744.993 1271.071 748.011 C 1231.032 750.908 1222.941 771.873 1190.544 769.421 C 1157.728 766.937 1152.301 744.177 1122.475 743.857 C 1093.883 743.55 1085.55 764.488 1053.747 767.838 C 1035.514 769.757 1011.186 770.312 978.863 742.867 L 978.863 796.162 L 1517.575 796.162 L 1517.748 777.114" fill="rgb(102,209,164)"/></g></g></g></svg>